# xmcd
#
# Track frame offsets:
# 150
# 14523
# 24490
# 44608
# 57123
# 66868
# 79958
# 97535
# 109405
# 124568
# 148585
# 176143
# 192213
# 207628
# 225418
# 245595
# 256650
# 284388
# 300270
# 320000
#
# Disc length: 4465 seconds
#
#
# Revision: 2
# Processed by: cddbd v1.5.1PL2 Copyright (c) Steve Scherf et al.
# Submitted via: FreeRIP 2.945 
#
DISCID=17116f14
DTITLE=Glen Campbell - Greatest Hits - Live
DYEAR=1900
DGENRE=
TTITLE0=Rhinestone Cowboy
TTITLE1=Gentle On My Mind
TTITLE2=Medley: Wichita Lineman, Galveston, Country Boy
TTITLE3=By the Time I Get to Phoenix
TTITLE4=Dreams of an Everyday Hosewife
TTITLE5=Heartache Number Two
TTITLE6=Please Come to Boston
TTITLE7=It's Only Make Believe
TTITLE8=Crying
TTITLE9=Blue Grass Medley
TTITLE10=Milk Cow Blues
TTITLE11=Rollin' (In My Sweet Baby's Arms)
TTITLE12=I'm So Lonesome I Could Cry
TTITLE13=Southern Nights
TTITLE14=Amazing Grace
TTITLE15=Try A Little Tenderness
TTITLE16=Mull of Kintyre
TTITLE17=In Your Loving Arms Again
TTITLE18=It's Your World Boys and Girls
TTITLE19=Trials and Tribulations
EXTD=
EXTT0=
EXTT1=
EXTT2=
EXTT3=
EXTT4=
EXTT5=
EXTT6=
EXTT7=
EXTT8=
EXTT9=
EXTT10=
EXTT11=
EXTT12=
EXTT13=
EXTT14=
EXTT15=
EXTT16=
EXTT17=
EXTT18=
EXTT19=
PLAYORDER=
